<?xml version="1.0" encoding="UTF-8"?>
<svg width="196px" height="34px" viewBox="0 0 196 34" version="1.1" xmlns="http://www.w3.org/2000/svg" xmlns:xlink="http://www.w3.org/1999/xlink">
    <!-- Generator: sketchtool 57.1 (101010) - https://sketch.com -->
    <title>7A54DFB7-F845-4772-84E5-7688A46CB16C</title>
    <desc>Created with sketchtool.</desc>
    <defs>
        <polygon id="path-1" points="0 0.5174 22.1049 0.5174 22.1049 31.3814 0 31.3814"></polygon>
        <polygon id="path-3" points="0.6319 0.8513 21.671 0.8513 21.671 32.8263 0.6319 32.8263"></polygon>
        <polygon id="path-5" points="0.0565 0.1359 26.7535 0.1359 26.7535 33 0.0565 33"></polygon>
        <polygon id="path-7" points="0.3481 0.1359 27.0441 0.1359 27.0441 33 0.3481 33"></polygon>
    </defs>
    <g id="01-02.-Homepage,-registration,-header,-menu" stroke="none" stroke-width="1" fill="none" fill-rule="evenodd">
        <g id="01a-0.homepage" transform="translate(-622.000000, -51.000000)">
            <g id="header" transform="translate(0.000000, 31.000000)">
                <g id="logo" transform="translate(622.000000, 19.000000)">
                    <g id="Group-3" transform="translate(0.000000, 1.211500)">
                        <mask id="mask-2" fill="white">
                            <use xlink:href="#path-1"></use>
                        </mask>
                        <g id="Clip-2"></g>
                        <path d="M15.7109,22.2524 C15.7109,20.8604 15.1259,19.8114 13.9569,19.1004 C12.7899,18.3914 11.2829,18.0344 9.4399,18.0344 L6.3489,18.0344 L6.3489,26.4694 L9.7619,26.4694 C11.7909,26.4694 13.2879,26.0824 14.2569,25.3114 C15.2269,24.5384 15.7109,23.5204 15.7109,22.2524 L15.7109,22.2524 Z M9.1129,13.1224 C10.7099,13.1224 12.0169,12.7684 13.0309,12.0574 C14.0439,11.3464 14.5509,10.3414 14.5509,9.0444 C14.5509,7.8094 14.1209,6.8974 13.2619,6.3104 C12.4009,5.7234 11.2319,5.4294 9.7579,5.4294 L6.3489,5.4294 L6.3489,13.1224 L9.1129,13.1224 Z M22.1049,22.7144 C22.1049,24.0744 21.7959,25.2864 21.1789,26.3544 C20.5609,27.4194 19.6949,28.3224 18.5829,29.0644 C17.4699,29.8044 16.1279,30.3774 14.5509,30.7794 C12.9769,31.1814 11.2309,31.3814 9.3149,31.3814 L-0.0001,31.3814 L-0.0001,0.5174 L10.5669,0.5174 C12.1419,0.5174 13.5699,0.6964 14.8529,1.0514 C16.1349,1.4074 17.2229,1.9014 18.1209,2.5324 C19.0169,3.1664 19.7099,3.9324 20.2039,4.8274 C20.6979,5.7234 20.9469,6.7134 20.9469,7.7944 C20.9469,9.7394 20.3839,11.3154 19.2559,12.5214 C18.1259,13.7264 16.5919,14.6374 14.6439,15.2554 C16.8679,15.5944 18.6679,16.3904 20.0419,17.6404 C21.4169,18.8934 22.1049,20.5844 22.1049,22.7144 L22.1049,22.7144 Z" id="Fill-1" fill="#000000" mask="url(#mask-2)"></path>
                    </g>
                    <path d="M39.1484,28.0518 C40.6614,28.0518 41.9824,27.7728 43.1104,27.2168 C44.2384,26.6598 45.1804,25.8968 45.9364,24.9238 C46.6944,23.9508 47.2584,22.7988 47.6274,21.4708 C48.0004,20.1438 48.1844,18.7068 48.1844,17.1598 C48.1844,15.6158 48.0004,14.1798 47.6274,12.8518 C47.2584,11.5228 46.6944,10.3718 45.9364,9.3998 C45.1804,8.4268 44.2384,7.6608 43.1104,7.1048 C41.9824,6.5488 40.6614,6.2718 39.1484,6.2718 C37.6344,6.2718 36.3124,6.5488 35.1864,7.1048 C34.0574,7.6608 33.1164,8.4268 32.3584,9.3998 C31.6024,10.3718 31.0394,11.5228 30.6674,12.8518 C30.2974,14.1798 30.1134,15.6158 30.1134,17.1598 C30.1134,18.7068 30.2974,20.1438 30.6674,21.4708 C31.0394,22.7988 31.6024,23.9508 32.3584,24.9238 C33.1164,25.8968 34.0574,26.6598 35.1864,27.2168 C36.3124,27.7728 37.6344,28.0518 39.1484,28.0518 M54.6724,17.1598 C54.6724,19.3558 54.3244,21.4158 53.6294,23.3478 C52.9344,25.2788 51.9304,26.9698 50.6174,28.4218 C49.3044,29.8728 47.6824,31.0258 45.7524,31.8738 C43.8214,32.7248 41.6194,33.1488 39.1484,33.1488 C36.6764,33.1488 34.4764,32.7248 32.5444,31.8738 C30.6144,31.0258 28.9834,29.8728 27.6564,28.4218 C26.3264,26.9698 25.3234,25.2788 24.6444,23.3478 C23.9634,21.4158 23.6244,19.3558 23.6244,17.1598 C23.6244,14.9998 23.9634,12.9448 24.6444,10.9978 C25.3234,9.0508 26.3264,7.3538 27.6564,5.8998 C28.9834,4.4478 30.6144,3.2978 32.5444,2.4468 C34.4764,1.5988 36.6764,1.1728 39.1484,1.1728 C41.6194,1.1728 43.8214,1.5988 45.7524,2.4468 C47.6824,3.2978 49.3044,4.4478 50.6174,5.8998 C51.9304,7.3538 52.9344,9.0508 53.6294,10.9978 C54.3244,12.9448 54.6724,14.9998 54.6724,17.1598" id="Fill-4" fill="#000000"></path>
                    <polygon id="Fill-6" fill="#000000" points="129.3789 1.5567 147.9169 1.5567 147.9169 6.7007 135.8669 6.7007 135.8669 14.1607 147.3599 14.1607 147.3599 19.3057 135.8669 19.3057 135.8669 27.2757 148.0539 27.2757 148.0539 32.4197 129.3789 32.4197"></polygon>
                    <path d="M172.3594,23.6163 C172.3594,24.9753 172.0804,26.2253 171.5234,27.3683 C170.9674,28.5123 170.1864,29.5013 169.1834,30.3343 C168.1784,31.1683 166.9654,31.8183 165.5464,32.2803 C164.1254,32.7443 162.5474,32.9753 160.8194,32.9753 C159.1824,32.9753 157.5364,32.7973 155.8844,32.4423 C154.2304,32.0883 152.7094,31.5713 151.3194,30.8903 L151.3874,25.3323 C152.5004,25.8583 155.0184,26.9043 156.3934,27.2753 C157.7684,27.6473 159.1824,27.8323 160.6344,27.8323 C162.1784,27.8323 163.4384,27.5153 164.4114,26.8823 C165.3834,26.2503 165.8714,25.3303 165.8714,24.1253 C165.8714,23.0123 165.4074,22.1013 164.4804,21.3903 C163.5534,20.6793 162.1314,19.9383 160.2174,19.1663 C158.8564,18.6093 157.6534,18.0303 156.6024,17.4293 C155.5524,16.8263 154.6724,16.1543 153.9614,15.4133 C153.2504,14.6713 152.7014,13.8453 152.3154,12.9333 C151.9284,12.0233 151.7364,10.9953 151.7364,9.8503 C151.7364,7.0103 152.7014,4.8243 154.6324,3.2953 C156.5634,1.7653 159.1504,1.0003 162.3954,1.0003 C164.0624,1.0003 165.5914,1.1563 166.9834,1.4643 C168.3734,1.7733 168.4234,1.7143 169.7204,2.3943 L169.8094,7.9053 C168.7274,7.3813 167.5914,6.9553 166.4044,6.6303 C165.2144,6.3053 164.0004,6.1433 162.7644,6.1433 C161.4054,6.1433 160.3094,6.4003 159.4744,6.9093 C158.6414,7.4193 158.2244,8.2143 158.2244,9.2973 C158.2244,9.7913 158.2944,10.2223 158.4314,10.5943 C158.5714,10.9643 158.8264,11.3123 159.1974,11.6363 C159.5694,11.9613 160.0554,12.2853 160.6574,12.6093 C161.2604,12.9333 162.0244,13.2983 162.9524,13.6973 C164.1864,14.2233 165.3674,14.7803 166.4974,15.3663 C167.6244,15.9533 168.6204,16.6343 169.4854,17.4043 C170.3484,18.1783 171.0454,19.0733 171.5714,20.0943 C172.0944,21.1113 172.3594,22.2863 172.3594,23.6163" id="Fill-8" fill="#000000"></path>
                    <g id="Group-12" transform="translate(174.000000, 0.211500)">
                        <mask id="mask-4" fill="white">
                            <use xlink:href="#path-3"></use>
                        </mask>
                        <g id="Clip-11"></g>
                        <path d="M21.6719,23.4673 C21.6719,24.8263 21.3929,26.0763 20.8359,27.2193 C20.2799,28.3633 19.4989,29.3523 18.4959,30.1853 C17.4909,31.0193 16.2779,31.6693 14.8589,32.1313 C13.4379,32.5953 11.8599,32.8263 10.1319,32.8263 C8.4949,32.8263 6.8489,32.6483 5.1969,32.2933 C3.5429,31.9393 2.0219,31.4223 0.6319,30.7413 L0.6999,25.1833 C1.8129,25.7093 4.3309,26.7553 5.7059,27.1263 C7.0809,27.4983 8.4949,27.6833 9.9469,27.6833 C11.4909,27.6833 12.7509,27.3663 13.7239,26.7333 C14.6959,26.1013 15.1839,25.1813 15.1839,23.9763 C15.1839,22.8633 14.7199,21.9523 13.7929,21.2413 C12.8659,20.5303 11.4439,19.7893 9.5299,19.0173 C8.1689,18.4603 6.9659,17.8813 5.9149,17.2803 C4.8649,16.6773 3.9849,16.0053 3.2739,15.2643 C2.5629,14.5223 2.0139,13.6963 1.6279,12.7843 C1.2409,11.8743 1.0489,10.8463 1.0489,9.7013 C1.0489,6.8613 2.0139,4.6753 3.9449,3.1463 C5.8759,1.6163 8.4629,0.8513 11.7079,0.8513 C13.3749,0.8513 14.9039,1.0073 16.2959,1.3153 C17.6859,1.6243 17.7359,1.5653 19.0329,2.2453 L19.1219,7.7563 C18.0399,7.2323 16.9039,6.8063 15.7169,6.4813 C14.5269,6.1563 13.3129,5.9943 12.0769,5.9943 C10.7179,5.9943 9.6219,6.2513 8.7869,6.7603 C7.9539,7.2703 7.5369,8.0653 7.5369,9.1483 C7.5369,9.6423 7.6069,10.0733 7.7439,10.4453 C7.8839,10.8153 8.1389,11.1633 8.5099,11.4873 C8.8819,11.8123 9.3679,12.1363 9.9699,12.4603 C10.5729,12.7843 11.3369,13.1493 12.2649,13.5483 C13.4989,14.0743 14.6799,14.6313 15.8099,15.2173 C16.9369,15.8043 17.9329,16.4853 18.7979,17.2553 C19.6609,18.0293 20.3579,18.9243 20.8839,19.9453 C21.4069,20.9623 21.6719,22.1373 21.6719,23.4673" id="Fill-10" fill="#000000" mask="url(#mask-4)"></path>
                    </g>
                    <path d="M116.1953,18.0391 C115.3863,18.0111 114.5723,17.9951 113.7593,17.9961 C113.7293,18.3261 113.6823,18.6451 113.6253,18.9591 C115.7183,19.0341 117.9873,19.3081 120.1173,19.1331 C120.1703,18.7781 120.2163,18.4211 120.2443,18.0571 C119.0903,18.1051 117.7633,18.0941 116.1953,18.0391" id="Fill-13" fill="#000000"></path>
                    <path d="M100.8838,27.0674 L100.3598,27.0674" id="Fill-15" fill="#000000"></path>
                    <path d="M101.4873,27.0674 L100.9503,27.0674" id="Fill-17" fill="#000000"></path>
                    <g id="Group-21" transform="translate(93.000000, 1.211500)">
                        <mask id="mask-6" fill="white">
                            <use xlink:href="#path-5"></use>
                        </mask>
                        <g id="Clip-20"></g>
                        <path d="M7.2295,25.8559 L6.5445,25.8559 L6.5445,5.2809 L9.5115,5.2809 C11.1485,5.2809 12.6625,5.5139 14.0515,5.9799 C15.4435,6.4459 16.6385,7.1209 17.6435,8.0049 C18.6475,8.8889 19.4275,9.9679 19.9845,11.2389 C20.1675,11.6579 20.3085,12.1029 20.4315,12.5589 C22.4615,12.2759 24.6715,11.9599 26.7535,11.4729 C26.5595,10.7659 26.3325,10.0719 26.0315,9.4059 C25.1805,7.5199 23.9755,5.8909 22.4165,4.5169 C20.8575,3.1419 18.9715,2.0689 16.7635,1.2959 C14.5535,0.5229 12.0905,0.1359 9.3725,0.1359 L0.0565,0.1359 L0.0565,33.0009 C0.0565,33.0009 14.5535,30.6139 16.7635,29.8419 C18.9715,29.0689 20.8575,27.9969 22.4165,26.6219 C22.5875,26.4709 22.7385,26.3049 22.9005,26.1479 C22.3285,26.1389 21.7185,26.0639 21.0455,25.8999 C19.4955,25.5229 17.8335,24.7529 16.1885,24.1789 C15.5345,24.5679 14.8275,24.8989 14.0515,25.1589 C12.6625,25.6249 11.1485,25.8559 9.5115,25.8559 L8.5575,25.8559" id="Fill-19" fill="#000000" mask="url(#mask-6)"></path>
                    </g>
                    <path d="M112.5019,22.0635 C112.3359,22.3515 112.1579,22.6275 111.9649,22.8925 C114.0659,23.3345 116.3069,23.9785 118.4169,24.1345 C118.5799,23.8465 118.7299,23.5495 118.8739,23.2495 C116.7289,23.1385 114.3799,22.4275 112.6489,22.0895 C112.6019,22.0815 112.5499,22.0725 112.5019,22.0635" id="Fill-22" fill="#000000"></path>
                    <path d="M100.9599,26.5284 C100.9199,26.7794 100.8979,26.9484 100.8839,27.0674 L100.9499,27.0674 C101.0369,26.7714 101.2009,26.2184 101.3539,25.7354 C102.8619,20.9584 108.5249,21.3044 112.5019,22.0634 C112.6769,21.7574 112.8389,21.4404 112.9839,21.1094 C113.2759,20.4404 113.4859,19.7214 113.6249,18.9594 C113.2849,18.9464 112.9449,18.9344 112.6159,18.9364 C106.9669,18.9694 101.9479,20.3524 100.9599,26.5284" id="Fill-24" fill="#000000"></path>
                    <path d="M100.0029,23.5713 C100.0029,24.5033 100.0559,25.3153 100.1139,25.9773 C100.1539,26.4233 100.1959,26.7913 100.2299,27.0673 L100.3589,27.0673 C101.0359,19.2923 107.2749,18.0063 113.7599,17.9963 C113.7969,17.6013 113.8169,17.1973 113.8169,16.7793 C113.8169,15.6983 113.6819,14.7003 113.4319,13.7703 C111.8899,13.9863 110.4499,14.1833 109.2599,14.4263 C103.8699,15.5253 100.0029,17.5573 100.0029,23.5713" id="Fill-26" fill="#000000"></path>
                    <path d="M101.4873,27.0674 L101.5573,27.0674 C101.5743,27.0444 101.5873,27.0264 101.6093,26.9944 C103.6803,24.0114 106.4113,24.4214 109.1883,25.3904 C109.7093,25.0814 110.1983,24.7364 110.6433,24.3444 C111.1383,23.9084 111.5793,23.4234 111.9653,22.8924 C111.5043,22.7964 111.0483,22.7074 110.6023,22.6374 C106.6813,22.0304 102.6983,22.3044 101.4873,27.0674" id="Fill-28" fill="#000000"></path>
                    <path d="M115.9004,27.3594 C117.8914,27.3884 119.3424,26.4664 120.6724,24.4174 C120.9164,24.0444 120.9164,24.0444 120.6004,24.0894 C119.8994,24.1924 119.1654,24.1894 118.4174,24.1344 C117.7414,25.3274 116.8964,26.3974 115.9004,27.3594" id="Fill-30" fill="#000000"></path>
                    <path d="M127.6611,7.9434 C127.5631,8.1664 127.3661,8.6114 126.8681,9.1954 C125.3521,10.9694 122.6841,11.9994 119.7541,12.6844 C120.1091,13.9814 120.3061,15.3414 120.3061,16.7794 C120.3061,17.2144 120.2761,17.6354 120.2441,18.0564 C125.9921,17.8124 127.0521,15.9024 127.6291,8.4944 C127.6891,7.7124 127.7601,7.7194 127.6611,7.9434" id="Fill-32" fill="#000000"></path>
                    <path d="M118.874,23.2491 C121.147,23.3671 123.192,22.8111 124.022,20.3991 C124.298,19.5991 124.338,18.7331 124.357,18.3011 C124.377,17.8681 124.377,17.8681 124.16,17.9791 C123.944,18.0911 123.512,18.3141 123.02,18.5111 C122.109,18.8751 121.128,19.0501 120.117,19.1331 C119.921,20.4701 119.572,21.7451 119.031,22.9431 C118.983,23.0491 118.924,23.1451 118.874,23.2491" id="Fill-34" fill="#000000"></path>
                    <path d="M66.9053,18.0391 C67.7143,18.0111 68.5293,17.9951 69.3413,17.9961 C69.3723,18.3261 69.4193,18.6451 69.4753,18.9591 C67.3823,19.0341 65.1133,19.3081 62.9833,19.1331 C62.9303,18.7781 62.8843,18.4211 62.8573,18.0571 C64.0103,18.1051 65.3383,18.0941 66.9053,18.0391" id="Fill-36" fill="#000000"></path>
                    <path d="M82.2178,27.0674 L82.7418,27.0674" id="Fill-38" fill="#000000"></path>
                    <path d="M81.6133,27.0674 L82.1513,27.0674" id="Fill-40" fill="#000000"></path>
                    <g id="Group-44" transform="translate(63.000000, 1.211500)">
                        <mask id="mask-8" fill="white">
                            <use xlink:href="#path-7"></use>
                        </mask>
                        <g id="Clip-43"></g>
                        <path d="M19.8711,25.8559 L20.5561,25.8559 L20.5561,5.2809 L17.5901,5.2809 C15.9531,5.2809 14.4381,5.5139 13.0491,5.9799 C11.6571,6.4459 10.4621,7.1209 9.4571,8.0049 C8.4541,8.8889 7.6731,9.9679 7.1171,11.2389 C6.9331,11.6579 6.7921,12.1029 6.6691,12.5589 C4.6391,12.2759 2.4291,11.9599 0.3481,11.4729 C0.5411,10.7659 0.7691,10.0719 1.0691,9.4059 C1.9201,7.5199 3.1251,5.8909 4.6841,4.5169 C6.2441,3.1419 8.1291,2.0689 10.3371,1.2959 C12.5471,0.5229 15.0101,0.1359 17.7281,0.1359 L27.0441,0.1359 L27.0441,33.0009 C27.0441,33.0009 12.5471,30.6139 10.3371,29.8419 C8.1291,29.0689 6.2441,27.9969 4.6841,26.6219 C4.5141,26.4709 4.3621,26.3049 4.2001,26.1479 C4.7721,26.1389 5.3831,26.0639 6.0561,25.8999 C7.6051,25.5229 9.2671,24.7529 10.9121,24.1789 C11.5661,24.5679 12.2741,24.8989 13.0491,25.1589 C14.4381,25.6249 15.9531,25.8559 17.5901,25.8559 L18.5431,25.8559" id="Fill-42" fill="#000000" mask="url(#mask-8)"></path>
                    </g>
                    <path d="M70.5986,22.0635 C70.7646,22.3515 70.9436,22.6275 71.1356,22.8925 C69.0346,23.3345 66.7936,23.9785 64.6836,24.1345 C64.5206,23.8465 64.3706,23.5495 64.2276,23.2495 C66.3716,23.1385 68.7206,22.4275 70.4526,22.0895 C70.4996,22.0815 70.5506,22.0725 70.5986,22.0635" id="Fill-45" fill="#000000"></path>
                    <path d="M82.1406,26.5284 C82.1806,26.7794 82.2026,26.9484 82.2176,27.0674 L82.1516,27.0674 C82.0636,26.7714 81.9006,26.2184 81.7466,25.7354 C80.2386,20.9584 74.5756,21.3044 70.5986,22.0634 C70.4236,21.7574 70.2616,21.4404 70.1176,21.1094 C69.8246,20.4404 69.6146,19.7214 69.4756,18.9594 C69.8156,18.9464 70.1556,18.9344 70.4846,18.9364 C76.1336,18.9694 81.1526,20.3524 82.1406,26.5284" id="Fill-47" fill="#000000"></path>
                    <path d="M83.0976,23.5713 C83.0976,24.5033 83.0446,25.3153 82.9866,25.9773 C82.9466,26.4233 82.9046,26.7913 82.8706,27.0673 L82.7426,27.0673 C82.0646,19.2923 75.8256,18.0063 69.3406,17.9963 C69.3036,17.6013 69.2836,17.1973 69.2836,16.7793 C69.2836,15.6983 69.4186,14.7003 69.6686,13.7703 C71.2116,13.9863 72.6506,14.1833 73.8406,14.4263 C79.2316,15.5253 83.0976,17.5573 83.0976,23.5713" id="Fill-49" fill="#000000"></path>
                    <path d="M81.6133,27.0674 L81.5433,27.0674 C81.5263,27.0444 81.5133,27.0264 81.4913,26.9944 C79.4203,24.0114 76.6893,24.4214 73.9123,25.3904 C73.3913,25.0814 72.9023,24.7364 72.4573,24.3444 C71.9623,23.9084 71.5213,23.4234 71.1353,22.8924 C71.5973,22.7964 72.0533,22.7074 72.4983,22.6374 C76.4193,22.0304 80.4033,22.3044 81.6133,27.0674" id="Fill-51" fill="#000000"></path>
                    <path d="M67.2002,27.3594 C65.2092,27.3884 63.7582,26.4664 62.4282,24.4174 C62.1852,24.0444 62.1852,24.0444 62.5002,24.0894 C63.2022,24.1924 63.9352,24.1894 64.6832,24.1344 C65.3592,25.3274 66.2042,26.3974 67.2002,27.3594" id="Fill-53" fill="#000000"></path>
                    <path d="M55.4394,7.9434 C55.5384,8.1664 55.7344,8.6114 56.2324,9.1954 C57.7484,10.9694 60.4164,11.9994 63.3474,12.6844 C62.9924,13.9814 62.7944,15.3414 62.7944,16.7794 C62.7944,17.2144 62.8254,17.6354 62.8574,18.0564 C57.1084,17.8124 56.0484,15.9024 55.4714,8.4944 C55.4114,7.7124 55.3404,7.7194 55.4394,7.9434" id="Fill-55" fill="#000000"></path>
                    <path d="M64.2275,23.2491 C61.9535,23.3671 59.9085,22.8111 59.0785,20.3991 C58.8025,19.5991 58.7625,18.7331 58.7435,18.3011 C58.7235,17.8681 58.7235,17.8681 58.9405,17.9791 C59.1565,18.0911 59.5885,18.3141 60.0815,18.5111 C60.9915,18.8751 61.9725,19.0501 62.9835,19.1331 C63.1795,20.4701 63.5285,21.7451 64.0695,22.9431 C64.1175,23.0491 64.1775,23.1451 64.2275,23.2491" id="Fill-57" fill="#000000"></path>
                </g>
            </g>
        </g>
    </g>
</svg>